<mxfile host="app.diagrams.net" modified="2023-09-02T15:12:42.223Z" agent="Mozilla/5.0 (Windows NT 10.0; Win64; x64) AppleWebKit/537.36 (KHTML, like Gecko) Chrome/116.0.0.0 Safari/537.36 Edg/116.0.1938.69" etag="SuwNgV40A5UsFAyD9uGg" version="21.6.9" type="device">
  <diagram name="Page-1" id="H-v-QwYq-mOXmPvQntEp">
    <mxGraphModel dx="1854" dy="1029" grid="1" gridSize="10" guides="1" tooltips="1" connect="1" arrows="1" fold="1" page="1" pageScale="1" pageWidth="850" pageHeight="1100" math="0" shadow="0">
      <root>
        <mxCell id="0" />
        <mxCell id="1" parent="0" />
        <mxCell id="XNHZTKUJtXOEtpgJojsP-58" value="role" style="swimlane;childLayout=stackLayout;horizontal=1;startSize=50;horizontalStack=0;rounded=1;fontSize=14;fontStyle=0;strokeWidth=2;resizeParent=0;resizeLast=1;shadow=0;dashed=0;align=center;arcSize=4;whiteSpace=wrap;html=1;" parent="1" vertex="1">
          <mxGeometry x="760" y="100" width="160" height="120" as="geometry" />
        </mxCell>
        <mxCell id="XNHZTKUJtXOEtpgJojsP-59" value="+ &lt;font color=&quot;#ff0000&quot;&gt;id&lt;/font&gt;: int&amp;nbsp; &amp;nbsp;&amp;nbsp;&lt;br&gt;+ name: nvarchar(50)" style="align=left;strokeColor=none;fillColor=none;spacingLeft=4;fontSize=12;verticalAlign=top;resizable=0;rotatable=0;part=1;html=1;" parent="XNHZTKUJtXOEtpgJojsP-58" vertex="1">
          <mxGeometry y="50" width="160" height="70" as="geometry" />
        </mxCell>
        <mxCell id="XNHZTKUJtXOEtpgJojsP-60" value="player" style="swimlane;childLayout=stackLayout;horizontal=1;startSize=50;horizontalStack=0;rounded=1;fontSize=14;fontStyle=0;strokeWidth=2;resizeParent=0;resizeLast=1;shadow=0;dashed=0;align=center;arcSize=4;whiteSpace=wrap;html=1;" parent="1" vertex="1">
          <mxGeometry x="240" y="360" width="160" height="120" as="geometry" />
        </mxCell>
        <mxCell id="XNHZTKUJtXOEtpgJojsP-61" value="+ &lt;font color=&quot;#ff0000&quot;&gt;id&lt;/font&gt;: bigInt&amp;nbsp; &amp;nbsp; &amp;nbsp; &amp;nbsp; &amp;nbsp; &amp;nbsp; &amp;nbsp; &amp;nbsp; &amp;nbsp; &amp;nbsp; &amp;nbsp;&amp;nbsp;&lt;br style=&quot;border-color: var(--border-color);&quot;&gt;+ &lt;font color=&quot;#0000ff&quot;&gt;user_id&lt;/font&gt;: int&amp;nbsp;&lt;br style=&quot;border-color: var(--border-color);&quot;&gt;+&amp;nbsp;&lt;font style=&quot;border-color: var(--border-color);&quot; color=&quot;#0000ff&quot;&gt;rank_id&lt;/font&gt;: int&amp;nbsp; &amp;nbsp;&lt;br&gt;+ elo: bigInt&amp;nbsp; &amp;nbsp; &amp;nbsp; &amp;nbsp; &amp;nbsp; &amp;nbsp; &amp;nbsp; &amp;nbsp;&amp;nbsp;" style="align=left;strokeColor=none;fillColor=none;spacingLeft=4;fontSize=12;verticalAlign=top;resizable=0;rotatable=0;part=1;html=1;" parent="XNHZTKUJtXOEtpgJojsP-60" vertex="1">
          <mxGeometry y="50" width="160" height="70" as="geometry" />
        </mxCell>
        <mxCell id="XNHZTKUJtXOEtpgJojsP-62" value="rank" style="swimlane;childLayout=stackLayout;horizontal=1;startSize=50;horizontalStack=0;rounded=1;fontSize=14;fontStyle=0;strokeWidth=2;resizeParent=0;resizeLast=1;shadow=0;dashed=0;align=center;arcSize=4;whiteSpace=wrap;html=1;" parent="1" vertex="1">
          <mxGeometry y="360" width="160" height="120" as="geometry" />
        </mxCell>
        <mxCell id="XNHZTKUJtXOEtpgJojsP-63" value="+ &lt;font color=&quot;#ff0000&quot;&gt;id&lt;/font&gt;: int&amp;nbsp; &amp;nbsp; &amp;nbsp; &amp;nbsp; &amp;nbsp; &amp;nbsp; &amp;nbsp; &amp;nbsp; &amp;nbsp; &amp;nbsp; &amp;nbsp; &amp;nbsp; &amp;nbsp; &amp;nbsp;&amp;nbsp;&lt;br&gt;+ name: nvarchar(50)" style="align=left;strokeColor=none;fillColor=none;spacingLeft=4;fontSize=12;verticalAlign=top;resizable=0;rotatable=0;part=1;html=1;" parent="XNHZTKUJtXOEtpgJojsP-62" vertex="1">
          <mxGeometry y="50" width="160" height="70" as="geometry" />
        </mxCell>
        <mxCell id="XNHZTKUJtXOEtpgJojsP-65" value="" style="edgeStyle=entityRelationEdgeStyle;fontSize=12;html=1;endArrow=ERoneToMany;rounded=0;exitX=0;exitY=0.25;exitDx=0;exitDy=0;entryX=1;entryY=0.25;entryDx=0;entryDy=0;" parent="1" source="XNHZTKUJtXOEtpgJojsP-59" target="_XfN3ZEyuZf0YvQImTGl-2" edge="1">
          <mxGeometry width="100" height="100" relative="1" as="geometry">
            <mxPoint x="270" y="510" as="sourcePoint" />
            <mxPoint x="200" y="397.5" as="targetPoint" />
          </mxGeometry>
        </mxCell>
        <mxCell id="XNHZTKUJtXOEtpgJojsP-66" value="" style="edgeStyle=entityRelationEdgeStyle;fontSize=12;html=1;endArrow=ERoneToMany;rounded=0;exitX=1;exitY=0.25;exitDx=0;exitDy=0;entryX=0;entryY=0.25;entryDx=0;entryDy=0;" parent="1" source="XNHZTKUJtXOEtpgJojsP-63" target="XNHZTKUJtXOEtpgJojsP-61" edge="1">
          <mxGeometry width="100" height="100" relative="1" as="geometry">
            <mxPoint x="270" y="430" as="sourcePoint" />
            <mxPoint x="370" y="330" as="targetPoint" />
          </mxGeometry>
        </mxCell>
        <mxCell id="XNHZTKUJtXOEtpgJojsP-71" value="match" style="swimlane;childLayout=stackLayout;horizontal=1;startSize=50;horizontalStack=0;rounded=1;fontSize=14;fontStyle=0;strokeWidth=2;resizeParent=0;resizeLast=1;shadow=0;dashed=0;align=center;arcSize=4;whiteSpace=wrap;html=1;" parent="1" vertex="1">
          <mxGeometry x="760" y="490" width="160" height="160" as="geometry" />
        </mxCell>
        <mxCell id="XNHZTKUJtXOEtpgJojsP-72" value="+ &lt;font color=&quot;#ff0000&quot;&gt;id&lt;/font&gt;: int&amp;nbsp; &amp;nbsp; &amp;nbsp; &amp;nbsp; &amp;nbsp; &amp;nbsp; &amp;nbsp; &amp;nbsp; &amp;nbsp; &amp;nbsp; &amp;nbsp; &amp;nbsp; &amp;nbsp;&amp;nbsp;&lt;br&gt;+ time: int&lt;br&gt;+ moving_time: int&lt;br&gt;+&amp;nbsp;accumulation: int&lt;br&gt;+ &lt;font color=&quot;#0000ff&quot;&gt;player1_id&lt;/font&gt;: bigInt&lt;br style=&quot;border-color: var(--border-color);&quot;&gt;+ &lt;font color=&quot;#0000ff&quot;&gt;player2_id&lt;/font&gt;: bigInt&lt;br style=&quot;border-color: var(--border-color);&quot;&gt;+ result: bigInt&amp;nbsp; &amp;nbsp; &amp;nbsp; &amp;nbsp; &amp;nbsp;&lt;span style=&quot;background-color: initial;&quot;&gt;&amp;nbsp;&amp;nbsp;&lt;/span&gt;" style="align=left;strokeColor=none;fillColor=none;spacingLeft=4;fontSize=12;verticalAlign=top;resizable=0;rotatable=0;part=1;html=1;" parent="XNHZTKUJtXOEtpgJojsP-71" vertex="1">
          <mxGeometry y="50" width="160" height="110" as="geometry" />
        </mxCell>
        <mxCell id="XNHZTKUJtXOEtpgJojsP-77" value="piece" style="swimlane;childLayout=stackLayout;horizontal=1;startSize=50;horizontalStack=0;rounded=1;fontSize=14;fontStyle=0;strokeWidth=2;resizeParent=0;resizeLast=1;shadow=0;dashed=0;align=center;arcSize=4;whiteSpace=wrap;html=1;" parent="1" vertex="1">
          <mxGeometry y="500" width="160" height="160" as="geometry" />
        </mxCell>
        <mxCell id="XNHZTKUJtXOEtpgJojsP-78" value="+ &lt;font color=&quot;#ff0000&quot;&gt;id&lt;/font&gt;: int&amp;nbsp; &amp;nbsp; &amp;nbsp; &amp;nbsp; &amp;nbsp; &amp;nbsp; &amp;nbsp; &amp;nbsp; &amp;nbsp; &amp;nbsp; &amp;nbsp;&amp;nbsp;&lt;br&gt;+ name: varchar(15)&lt;br&gt;+ is_red: bit&lt;br&gt;+ image: varchar(1000)&lt;br&gt;+ start_col: int&lt;br&gt;+ start_row: int" style="align=left;strokeColor=none;fillColor=none;spacingLeft=4;fontSize=12;verticalAlign=top;resizable=0;rotatable=0;part=1;html=1;" parent="XNHZTKUJtXOEtpgJojsP-77" vertex="1">
          <mxGeometry y="50" width="160" height="110" as="geometry" />
        </mxCell>
        <mxCell id="XNHZTKUJtXOEtpgJojsP-94" value="move_history" style="swimlane;childLayout=stackLayout;horizontal=1;startSize=50;horizontalStack=0;rounded=1;fontSize=14;fontStyle=0;strokeWidth=2;resizeParent=0;resizeLast=1;shadow=0;dashed=0;align=center;arcSize=4;whiteSpace=wrap;html=1;" parent="1" vertex="1">
          <mxGeometry x="480" y="480" width="200" height="200" as="geometry" />
        </mxCell>
        <mxCell id="XNHZTKUJtXOEtpgJojsP-95" value="+ &lt;font color=&quot;#ff0000&quot;&gt;id &lt;/font&gt;: bigInt&amp;nbsp; &amp;nbsp; &amp;nbsp; &amp;nbsp; &amp;nbsp; &amp;nbsp; &amp;nbsp; &amp;nbsp;&amp;nbsp;&lt;br&gt;+ &lt;font color=&quot;#0000ff&quot;&gt;match_id&lt;/font&gt;: bigInt&lt;br&gt;+ &lt;font color=&quot;#0000ff&quot;&gt;training_id&lt;/font&gt;: bigInt&amp;nbsp; &amp;nbsp; &amp;nbsp;&amp;nbsp;&lt;br&gt;+ turn: bigInt&amp;nbsp; &amp;nbsp; &amp;nbsp;&lt;br&gt;+ &lt;font color=&quot;#0000ff&quot;&gt;piece_id&lt;/font&gt;: int&amp;nbsp;&lt;br&gt;+ to_col: int&lt;br&gt;+ to_row: int" style="align=left;strokeColor=none;fillColor=none;spacingLeft=4;fontSize=12;verticalAlign=top;resizable=0;rotatable=0;part=1;html=1;" parent="XNHZTKUJtXOEtpgJojsP-94" vertex="1">
          <mxGeometry y="50" width="200" height="150" as="geometry" />
        </mxCell>
        <mxCell id="XNHZTKUJtXOEtpgJojsP-100" value="" style="edgeStyle=entityRelationEdgeStyle;fontSize=12;html=1;endArrow=ERoneToMany;rounded=0;exitX=0;exitY=0.25;exitDx=0;exitDy=0;entryX=1;entryY=0.25;entryDx=0;entryDy=0;" parent="1" source="XNHZTKUJtXOEtpgJojsP-72" target="XNHZTKUJtXOEtpgJojsP-95" edge="1">
          <mxGeometry width="100" height="100" relative="1" as="geometry">
            <mxPoint x="480" y="570" as="sourcePoint" />
            <mxPoint x="530" y="830" as="targetPoint" />
          </mxGeometry>
        </mxCell>
        <mxCell id="XMyycZJ_cLoeEv3RKmhB-4" value="" style="edgeStyle=entityRelationEdgeStyle;fontSize=12;html=1;endArrow=ERoneToMany;rounded=0;entryX=0;entryY=0.25;entryDx=0;entryDy=0;exitX=1;exitY=0.5;exitDx=0;exitDy=0;" parent="1" source="XNHZTKUJtXOEtpgJojsP-61" target="XNHZTKUJtXOEtpgJojsP-95" edge="1">
          <mxGeometry width="100" height="100" relative="1" as="geometry">
            <mxPoint x="560" y="610" as="sourcePoint" />
            <mxPoint x="730" y="895" as="targetPoint" />
          </mxGeometry>
        </mxCell>
        <mxCell id="_XfN3ZEyuZf0YvQImTGl-1" value="user" style="swimlane;childLayout=stackLayout;horizontal=1;startSize=50;horizontalStack=0;rounded=1;fontSize=14;fontStyle=0;strokeWidth=2;resizeParent=0;resizeLast=1;shadow=0;dashed=0;align=center;arcSize=4;whiteSpace=wrap;html=1;" parent="1" vertex="1">
          <mxGeometry x="480" y="160" width="200" height="200" as="geometry" />
        </mxCell>
        <mxCell id="_XfN3ZEyuZf0YvQImTGl-2" value="+ &lt;font color=&quot;#ff0000&quot;&gt;id&lt;/font&gt;: bigInt&amp;nbsp; &amp;nbsp; &amp;nbsp; &amp;nbsp; &amp;nbsp; &amp;nbsp; &amp;nbsp; &amp;nbsp; &amp;nbsp; &amp;nbsp; &amp;nbsp;&amp;nbsp;&lt;br style=&quot;border-color: var(--border-color);&quot;&gt;+ email: varchar(100)&lt;br style=&quot;border-color: var(--border-color);&quot;&gt;+ phone_number: varchar(15)&lt;br&gt;+ password: varchar(1000)&lt;br style=&quot;border-color: var(--border-color);&quot;&gt;+ name: nvarchar(100)&lt;br style=&quot;border-color: var(--border-color);&quot;&gt;+ avata: varchar(1000)&amp;nbsp; &amp;nbsp; &amp;nbsp; &amp;nbsp; &amp;nbsp; &amp;nbsp; &amp;nbsp; &amp;nbsp; &amp;nbsp;&lt;br style=&quot;border-color: var(--border-color);&quot;&gt;+&amp;nbsp;&lt;font style=&quot;border-color: var(--border-color);&quot; color=&quot;#0000ff&quot;&gt;role_id&lt;/font&gt;: int&amp;nbsp;&lt;br&gt;+ &lt;font color=&quot;#0000ff&quot;&gt;vip_id&lt;/font&gt;: int&lt;br&gt;+ &lt;font color=&quot;#0000ff&quot;&gt;status&lt;/font&gt;: nvarchar(20)&lt;br&gt;&amp;nbsp;" style="align=left;strokeColor=none;fillColor=none;spacingLeft=4;fontSize=12;verticalAlign=top;resizable=0;rotatable=0;part=1;html=1;" parent="_XfN3ZEyuZf0YvQImTGl-1" vertex="1">
          <mxGeometry y="50" width="200" height="150" as="geometry" />
        </mxCell>
        <mxCell id="_XfN3ZEyuZf0YvQImTGl-3" value="" style="edgeStyle=entityRelationEdgeStyle;fontSize=12;html=1;endArrow=ERmandOne;startArrow=ERmandOne;rounded=0;exitX=1;exitY=0.25;exitDx=0;exitDy=0;entryX=0;entryY=0.5;entryDx=0;entryDy=0;" parent="1" source="XNHZTKUJtXOEtpgJojsP-61" target="_XfN3ZEyuZf0YvQImTGl-2" edge="1">
          <mxGeometry width="100" height="100" relative="1" as="geometry">
            <mxPoint x="810" y="498" as="sourcePoint" />
            <mxPoint x="490" y="498" as="targetPoint" />
          </mxGeometry>
        </mxCell>
        <mxCell id="_XfN3ZEyuZf0YvQImTGl-14" value="" style="edgeStyle=entityRelationEdgeStyle;fontSize=12;html=1;endArrow=ERmandOne;startArrow=ERmandOne;rounded=0;exitX=1;exitY=0.5;exitDx=0;exitDy=0;" parent="1" source="XNHZTKUJtXOEtpgJojsP-78" target="XNHZTKUJtXOEtpgJojsP-95" edge="1">
          <mxGeometry width="100" height="100" relative="1" as="geometry">
            <mxPoint x="410" y="518" as="sourcePoint" />
            <mxPoint x="490" y="355" as="targetPoint" />
          </mxGeometry>
        </mxCell>
        <mxCell id="_XfN3ZEyuZf0YvQImTGl-15" value="vip" style="swimlane;childLayout=stackLayout;horizontal=1;startSize=50;horizontalStack=0;rounded=1;fontSize=14;fontStyle=0;strokeWidth=2;resizeParent=0;resizeLast=1;shadow=0;dashed=0;align=center;arcSize=4;whiteSpace=wrap;html=1;" parent="1" vertex="1">
          <mxGeometry x="760" y="260" width="160" height="120" as="geometry" />
        </mxCell>
        <mxCell id="_XfN3ZEyuZf0YvQImTGl-16" value="+ &lt;font color=&quot;#ff0000&quot;&gt;id&lt;/font&gt;: int&amp;nbsp; &amp;nbsp;&amp;nbsp;&lt;br&gt;+ name: nvarchar(50)" style="align=left;strokeColor=none;fillColor=none;spacingLeft=4;fontSize=12;verticalAlign=top;resizable=0;rotatable=0;part=1;html=1;" parent="_XfN3ZEyuZf0YvQImTGl-15" vertex="1">
          <mxGeometry y="50" width="160" height="70" as="geometry" />
        </mxCell>
        <mxCell id="_XfN3ZEyuZf0YvQImTGl-18" value="" style="edgeStyle=entityRelationEdgeStyle;fontSize=12;html=1;endArrow=ERoneToMany;rounded=0;exitX=0;exitY=0.25;exitDx=0;exitDy=0;entryX=1;entryY=0.25;entryDx=0;entryDy=0;" parent="1" source="_XfN3ZEyuZf0YvQImTGl-16" target="_XfN3ZEyuZf0YvQImTGl-2" edge="1">
          <mxGeometry width="100" height="100" relative="1" as="geometry">
            <mxPoint x="770" y="198" as="sourcePoint" />
            <mxPoint x="690" y="258" as="targetPoint" />
          </mxGeometry>
        </mxCell>
        <mxCell id="_XfN3ZEyuZf0YvQImTGl-19" value="Text" style="text;html=1;align=center;verticalAlign=middle;resizable=0;points=[];autosize=1;strokeColor=none;fillColor=none;" parent="1" vertex="1">
          <mxGeometry x="1455" y="255" width="50" height="30" as="geometry" />
        </mxCell>
        <mxCell id="793qnr_ga3bGwXurebxG-1" value="training" style="swimlane;childLayout=stackLayout;horizontal=1;startSize=50;horizontalStack=0;rounded=1;fontSize=14;fontStyle=0;strokeWidth=2;resizeParent=0;resizeLast=1;shadow=0;dashed=0;align=center;arcSize=4;whiteSpace=wrap;html=1;" vertex="1" parent="1">
          <mxGeometry x="480" y="800" width="200" height="120" as="geometry" />
        </mxCell>
        <mxCell id="793qnr_ga3bGwXurebxG-2" value="+ &lt;font color=&quot;#ff0000&quot;&gt;id&lt;/font&gt;: int&amp;nbsp; &amp;nbsp; &amp;nbsp; &amp;nbsp; &amp;nbsp; &amp;nbsp; &amp;nbsp; &amp;nbsp; &amp;nbsp; &amp;nbsp; &amp;nbsp; &amp;nbsp; &amp;nbsp;&amp;nbsp;&lt;br&gt;+ title: int&lt;br&gt;+ &lt;font color=&quot;#0000ff&quot;&gt;training_id&lt;/font&gt;: int&lt;br&gt;&amp;nbsp; &amp;nbsp; &amp;nbsp;&amp;nbsp;&lt;span style=&quot;background-color: initial;&quot;&gt;&amp;nbsp;&amp;nbsp;&lt;/span&gt;" style="align=left;strokeColor=none;fillColor=none;spacingLeft=4;fontSize=12;verticalAlign=top;resizable=0;rotatable=0;part=1;html=1;" vertex="1" parent="793qnr_ga3bGwXurebxG-1">
          <mxGeometry y="50" width="200" height="70" as="geometry" />
        </mxCell>
        <mxCell id="793qnr_ga3bGwXurebxG-4" value="" style="fontSize=12;html=1;endArrow=ERoneToMany;rounded=0;exitX=0;exitY=0.5;exitDx=0;exitDy=0;entryX=0.25;entryY=0;entryDx=0;entryDy=0;edgeStyle=orthogonalEdgeStyle;" edge="1" parent="793qnr_ga3bGwXurebxG-1" source="793qnr_ga3bGwXurebxG-2" target="793qnr_ga3bGwXurebxG-1">
          <mxGeometry width="100" height="100" relative="1" as="geometry">
            <mxPoint x="110" y="10" as="sourcePoint" />
            <mxPoint x="110" y="-110" as="targetPoint" />
            <Array as="points">
              <mxPoint x="-10" y="85" />
              <mxPoint x="-10" y="-20" />
              <mxPoint x="50" y="-20" />
            </Array>
          </mxGeometry>
        </mxCell>
        <mxCell id="793qnr_ga3bGwXurebxG-3" value="" style="fontSize=12;html=1;endArrow=ERoneToMany;rounded=0;exitX=0.5;exitY=0;exitDx=0;exitDy=0;entryX=0.5;entryY=1;entryDx=0;entryDy=0;" edge="1" parent="1" source="793qnr_ga3bGwXurebxG-1" target="XNHZTKUJtXOEtpgJojsP-95">
          <mxGeometry width="100" height="100" relative="1" as="geometry">
            <mxPoint x="770" y="578" as="sourcePoint" />
            <mxPoint x="690" y="578" as="targetPoint" />
          </mxGeometry>
        </mxCell>
      </root>
    </mxGraphModel>
  </diagram>
</mxfile>
